<svg width="89" height="40" viewBox="0 0 89 40" fill="none" xmlns="http://www.w3.org/2000/svg">
<g clip-path="url(#clip0_154_60)">
<path d="M6.94517 15.7132V17.7246H4.79659V23.8046H2.25944V17.7246H0.133728V15.7132H6.94517ZM8.49042 19.7475C8.49042 18.9475 8.65042 18.2351 8.97042 17.6104C9.29806 16.9856 9.76281 16.5018 10.3647 16.1589C10.9666 15.8085 11.6752 15.6332 12.4904 15.6332C13.1914 15.6332 13.8161 15.7665 14.3647 16.0332C14.9209 16.2922 15.3704 16.6618 15.7133 17.1418C16.0638 17.6218 16.2961 18.1818 16.4104 18.8218H13.7361C13.6142 18.5551 13.439 18.3494 13.2104 18.2046C12.9895 18.0522 12.7342 17.9761 12.4447 17.9761C12.0181 17.9761 11.679 18.1361 11.4276 18.4561C11.1838 18.7761 11.0618 19.2065 11.0618 19.7475C11.0618 20.2885 11.1838 20.7189 11.4276 21.0389C11.679 21.3589 12.0181 21.5189 12.4447 21.5189C12.7342 21.5189 12.9895 21.4465 13.2104 21.3018C13.439 21.1494 13.6142 20.9399 13.7361 20.6732H16.4104C16.2961 21.3132 16.0638 21.8732 15.7133 22.3532C15.3704 22.8332 14.9209 23.2065 14.3647 23.4732C13.8161 23.7322 13.1914 23.8618 12.4904 23.8618C11.6752 23.8618 10.9666 23.6904 10.3647 23.3475C9.76281 22.997 9.29806 22.5094 8.97042 21.8846C8.65042 21.2599 8.49042 20.5475 8.49042 19.7475ZM23.3696 18.4789C23.2706 18.3189 23.1296 18.197 22.9468 18.1132C22.7639 18.0218 22.5429 17.9761 22.2839 17.9761C21.7963 17.9761 21.4191 18.1361 21.1525 18.4561C20.8858 18.7685 20.7525 19.1989 20.7525 19.7475C20.7525 20.3799 20.9011 20.8522 21.1982 21.1646C21.4953 21.477 21.9525 21.6332 22.5696 21.6332C23.1563 21.6332 23.6287 21.397 23.9868 20.9246H21.9639V19.1304H26.0896V21.6675C25.7391 22.2694 25.2553 22.7875 24.6382 23.2218C24.0211 23.6485 23.2401 23.8618 22.2953 23.8618C21.4572 23.8618 20.7258 23.6904 20.1011 23.3475C19.4839 22.997 19.0077 22.5094 18.6725 21.8846C18.3448 21.2599 18.1811 20.5475 18.1811 19.7475C18.1811 18.9475 18.3448 18.2351 18.6725 17.6104C19.0077 16.9856 19.4839 16.5018 20.1011 16.1589C20.7182 15.8085 21.442 15.6332 22.2725 15.6332C23.3315 15.6332 24.1925 15.8885 24.8553 16.3989C25.5258 16.9094 25.922 17.6027 26.0439 18.4789H23.3696Z" fill="#FFCB04"/>
<path d="M37.8147 15.7132V23.8047H35.2891V19.7704L34.0434 23.8047H31.872L30.6263 19.7704V23.8047H28.0891V15.7132H31.1977L32.9805 20.5704L34.7177 15.7132H37.8147ZM39.7025 20.5818C39.7025 19.9037 39.8168 19.317 40.0454 18.8218C40.2815 18.3189 40.6015 17.938 41.0054 17.6789C41.4093 17.4123 41.8625 17.2789 42.3654 17.2789C42.7843 17.2789 43.1465 17.3665 43.4511 17.5418C43.7558 17.7094 43.9883 17.9418 44.1483 18.2389V17.3589H46.674V23.8047H44.1483V22.9247C43.9883 23.2218 43.7558 23.458 43.4511 23.6332C43.1465 23.8008 42.7843 23.8847 42.3654 23.8847C41.8625 23.8847 41.4093 23.7551 41.0054 23.4961C40.6015 23.2294 40.2815 22.8485 40.0454 22.3532C39.8168 21.8504 39.7025 21.2599 39.7025 20.5818ZM44.1483 20.5818C44.1483 20.2389 44.0608 19.9723 43.8854 19.7818C43.71 19.5913 43.4854 19.4961 43.2111 19.4961C42.9368 19.4961 42.7122 19.5913 42.5368 19.7818C42.3615 19.9723 42.274 20.2389 42.274 20.5818C42.274 20.9247 42.3615 21.1913 42.5368 21.3818C42.7122 21.5723 42.9368 21.6675 43.2111 21.6675C43.4854 21.6675 43.71 21.5723 43.8854 21.3818C44.0608 21.1913 44.1483 20.9247 44.1483 20.5818ZM53.4133 17.3132C54.1522 17.3132 54.7275 17.5608 55.139 18.0561C55.5579 18.5513 55.7675 19.2218 55.7675 20.0675V23.8047H53.2418V20.3875C53.2418 20.0828 53.1579 19.8428 52.9904 19.6675C52.8304 19.4847 52.6133 19.3932 52.339 19.3932C52.0572 19.3932 51.8361 19.4847 51.6761 19.6675C51.5161 19.8428 51.4361 20.0828 51.4361 20.3875V23.8047H48.899V17.3589H51.4361V18.3418C51.6343 18.037 51.8972 17.7894 52.2247 17.5989C52.56 17.4085 52.9561 17.3132 53.4133 17.3132ZM57.6104 20.5818C57.6104 19.9037 57.7247 19.317 57.9533 18.8218C58.1897 18.3189 58.5097 17.938 58.9133 17.6789C59.3172 17.4123 59.7704 17.2789 60.2733 17.2789C60.6925 17.2789 61.0543 17.3665 61.359 17.5418C61.664 17.7094 61.8961 17.9418 62.0561 18.2389V17.3589H64.5818V23.8047H62.0561V22.9247C61.8961 23.2218 61.664 23.458 61.359 23.6332C61.0543 23.8008 60.6925 23.8847 60.2733 23.8847C59.7704 23.8847 59.3172 23.7551 58.9133 23.4961C58.5097 23.2294 58.1897 22.8485 57.9533 22.3532C57.7247 21.8504 57.6104 21.2599 57.6104 20.5818ZM62.0561 20.5818C62.0561 20.2389 61.9686 19.9723 61.7933 19.7818C61.6183 19.5913 61.3932 19.4961 61.119 19.4961C60.8447 19.4961 60.62 19.5913 60.4447 19.7818C60.2697 19.9723 60.1818 20.2389 60.1818 20.5818C60.1818 20.9247 60.2697 21.1913 60.4447 21.3818C60.62 21.5723 60.8447 21.6675 61.119 21.6675C61.3932 21.6675 61.6183 21.5723 61.7933 21.3818C61.9686 21.1913 62.0561 20.9247 62.0561 20.5818ZM69.1268 17.2789C69.5461 17.2789 69.9079 17.3665 70.2125 17.5418C70.5175 17.7094 70.7497 17.9418 70.9097 18.2389V17.3589H73.4354V23.6904C73.4354 24.2923 73.325 24.8408 73.104 25.3361C72.8833 25.8313 72.525 26.2275 72.0297 26.5247C71.5422 26.8218 70.9136 26.9704 70.144 26.9704C69.1079 26.9704 68.285 26.7265 67.6754 26.2389C67.0736 25.7589 66.7308 25.1037 66.6468 24.2732H69.1383C69.2068 24.6085 69.4811 24.7761 69.9611 24.7761C70.2583 24.7761 70.4908 24.6999 70.6583 24.5475C70.8261 24.3951 70.9097 24.1094 70.9097 23.6904V22.9247C70.7497 23.2218 70.5175 23.458 70.2125 23.6332C69.9079 23.8008 69.5461 23.8847 69.1268 23.8847C68.624 23.8847 68.1707 23.7551 67.7668 23.4961C67.3633 23.2294 67.0433 22.8485 66.8068 22.3532C66.5783 21.8504 66.464 21.2599 66.464 20.5818C66.464 19.9037 66.5783 19.317 66.8068 18.8218C67.0433 18.3189 67.3633 17.938 67.7668 17.6789C68.1707 17.4123 68.624 17.2789 69.1268 17.2789ZM70.9097 20.5818C70.9097 20.2389 70.8222 19.9723 70.6468 19.7818C70.4718 19.5913 70.2468 19.4961 69.9725 19.4961C69.6983 19.4961 69.4736 19.5913 69.2983 19.7818C69.1233 19.9723 69.0354 20.2389 69.0354 20.5818C69.0354 20.9247 69.1233 21.1913 69.2983 21.3818C69.4736 21.5723 69.6983 21.6675 69.9725 21.6675C70.2468 21.6675 70.4718 21.5723 70.6468 21.3818C70.8222 21.1913 70.9097 20.9247 70.9097 20.5818ZM81.9004 20.5247C81.9004 20.6999 81.889 20.8675 81.8661 21.0275H77.7861C77.8243 21.5837 78.0568 21.8618 78.4833 21.8618C78.7575 21.8618 78.9558 21.7361 79.0775 21.4847H81.7632C81.6718 21.9418 81.4775 22.3532 81.1804 22.7189C80.8911 23.077 80.5215 23.3628 80.0718 23.5761C79.63 23.7818 79.1425 23.8847 78.609 23.8847C77.969 23.8847 77.3975 23.7513 76.8947 23.4847C76.3997 23.218 76.0111 22.837 75.729 22.3418C75.4547 21.8389 75.3175 21.2523 75.3175 20.5818C75.3175 19.9113 75.4547 19.3285 75.729 18.8332C76.0111 18.3304 76.3997 17.9456 76.8947 17.6789C77.3975 17.4123 77.969 17.2789 78.609 17.2789C79.249 17.2789 79.8168 17.4123 80.3118 17.6789C80.8147 17.938 81.2033 18.3113 81.4775 18.7989C81.7597 19.2865 81.9004 19.8618 81.9004 20.5247ZM79.329 19.9189C79.329 19.7056 79.2604 19.5456 79.1232 19.4389C78.9861 19.3247 78.8147 19.2675 78.609 19.2675C78.1597 19.2675 77.8968 19.4847 77.8204 19.9189H79.329ZM86.3258 18.5475C86.5847 18.1742 86.9011 17.877 87.2743 17.6561C87.6475 17.4275 88.0361 17.3132 88.44 17.3132V20.0218H87.72C87.24 20.0218 86.8857 20.1056 86.6572 20.2732C86.4361 20.4408 86.3258 20.738 86.3258 21.1647V23.8047H83.7886V17.3589H86.3258V18.5475Z" fill="url(#paint0_linear_154_60)"/>
<path fill-rule="evenodd" clip-rule="evenodd" d="M38.8132 0.0735479C37.6704 -0.232756 36.4954 0.445636 36.189 1.58877L33.5856 11.3046H59.4675L60.3372 8.05925C60.6432 6.91611 59.965 5.74111 58.8218 5.43479L38.8132 0.0735479ZM54.874 28.4475H28.9922L28.0546 31.9464C27.7483 33.0896 28.4267 34.2646 29.5698 34.5709L49.5782 39.9321C50.7215 40.2386 51.8965 39.56 52.2029 38.4168L54.874 28.4475Z" fill="white"/>
<path d="M40.2811 2.85551L39.5643 3.02654C39.4718 2.88302 39.3279 2.77214 39.15 2.72453C38.77 2.62262 38.3786 2.84913 38.2765 3.23045C38.2668 3.26648 38.26 3.3026 38.2561 3.33857L37.539 3.50965C37.5293 3.35737 37.5436 3.20087 37.5854 3.04524C37.79 2.28118 38.574 1.82732 39.3357 2.03151C39.7779 2.14994 40.1154 2.46374 40.2811 2.85551Z" fill="black"/>
<path d="M39.654 3.59946C39.5515 3.98078 39.1604 4.20728 38.78 4.10538C38.6015 4.05746 38.4568 3.94545 38.3643 3.80056L37.6479 3.97149C37.8132 4.3646 38.1515 4.67967 38.5943 4.79842C38.6754 4.82013 38.7568 4.83438 38.8375 4.84163L38.8361 6.57874L42.0261 2.92694L40.3911 3.31767C40.3911 3.31748 40.3911 3.31728 40.3911 3.31708L39.6743 3.48804C39.6707 3.52509 39.6636 3.56233 39.654 3.59946Z" fill="black"/>
<path d="M39.4114 3.53451C39.345 3.78156 39.0918 3.92835 38.8454 3.86231C38.5989 3.79628 38.4529 3.54247 38.5189 3.2954C38.585 3.04833 38.8386 2.90157 39.085 2.9676C39.3314 3.03362 39.4775 3.28744 39.4114 3.53451Z" fill="black"/>
</g>
<defs>
<linearGradient id="paint0_linear_154_60" x1="34.2858" y1="21.6618" x2="34.2858" y2="19.8761" gradientUnits="userSpaceOnUse">
<stop stop-color="white"/>
<stop offset="1" stop-color="#F9F9F9"/>
</linearGradient>
<clipPath id="clip0_154_60">
<rect width="88.5714" height="40" fill="white"/>
</clipPath>
</defs>
</svg>
